<?xml version="1.0" encoding="UTF-8" standalone="no"?>
<!DOCTYPE svg PUBLIC "-//W3C//DTD SVG 1.1//EN" "http://www.w3.org/Graphics/SVG/1.1/DTD/svg11.dtd">
<svg width="36" height="36" viewBox="0 0 36 36" version="1.1" xmlns="http://www.w3.org/2000/svg" xmlns:xlink="http://www.w3.org/1999/xlink" xml:space="preserve" xmlns:serif="http://www.serif.com/" style="fill-rule:evenodd;clip-rule:evenodd;stroke-linejoin:round;stroke-miterlimit:2;">
    <path d="M32,5L4,5C2.895,5 2,5.895 2,7L2,29C2,30.105 2.895,31 4,31L32,31C33.105,31 34,30.105 34,29L34,7C34,5.895 33.105,5 32,5ZM4,29L4,7L32,7L32,29L4,29Z" style="fill:white;fill-rule:nonzero;"/>
    <path d="M17,27C12.582,27 9,23.418 9,19C9,14.582 12.582,11 17,11L17,19L25,19C25,23.418 21.418,27 17,27ZM23.247,20.4L15.4,20.4L15.4,12.802C12.64,13.513 10.601,16.018 10.6,19C10.6,22.535 13.465,25.4 17,25.4C20.054,25.401 22.608,23.261 23.247,20.4Z" style="fill:white;fill-rule:nonzero;"/>
    <path d="M19,9C23.418,9 27,12.582 27,17L19,17L19,9ZM25.198,15.4C24.62,13.15 22.849,11.38 20.6,10.801L20.6,15.4L25.198,15.4Z" style="fill:white;fill-rule:nonzero;"/>
    <rect x="0" y="0" width="36" height="36" style="fill-opacity:0;"/>
</svg>
